<?xml version="1.0" encoding="UTF-8" standalone="no"?>
<svg xmlns="http://www.w3.org/2000/svg" version="1.1" width="544" height="295">
	<g transform="scale(4) translate(0, 73.7) scale(1, -1)">
		<path d="m 8.203,67.551 c -0.187,0.375 -0.469,0.64 -0.922,0.64 -1.172,0 -2.406,-1.453 -2.406,-2.906 0,-0.937 0.547,-1.594 1.328,-1.594 0.203,0 0.703,0.047 1.297,0.75 0.078,-0.421 0.422,-0.75 0.906,-0.75 0.344,0 0.578,0.235 0.735,0.547 0.172,0.36 0.297,0.969 0.297,0.985 0,0.093 -0.094,0.093 -0.125,0.093 -0.094,0 -0.11,-0.031 -0.125,-0.171 -0.172,-0.641 -0.36,-1.235 -0.766,-1.235 -0.266,0 -0.297,0.266 -0.297,0.453 0,0.219 0.016,0.297 0.125,0.735 0.109,0.422 0.141,0.515 0.219,0.906 l 0.359,1.391 c 0.078,0.265 0.078,0.296 0.078,0.328 0,0.172 -0.125,0.265 -0.297,0.265 -0.234,0 -0.39,-0.218 -0.406,-0.437 z M 7.547,64.988 C 7.5,64.801 7.5,64.785 7.344,64.613 6.906,64.066 6.5,63.91 6.219,63.91 c -0.485,0 -0.625,0.547 -0.625,0.938 0,0.5 0.312,1.718 0.547,2.172 0.297,0.578 0.75,0.953 1.156,0.953 0.641,0 0.781,-0.813 0.781,-0.875 0,-0.063 -0.015,-0.125 -0.031,-0.172 l -0.5,-1.938 z" />
		<path d="m 12.109,66.773 c 0,0.188 -0.015,0.204 -0.218,0.204 -0.438,-0.454 -1.078,-0.454 -1.375,-0.454 l 0,-0.25 c 0.172,0 0.64,0 1.015,0.188 l 0,-3.578 c 0,-0.235 0,-0.328 -0.703,-0.328 l -0.265,0 0,-0.25 c 0.125,0 1,0.031 1.25,0.031 0.218,0 1.109,-0.031 1.265,-0.031 l 0,0.25 -0.265,0 c -0.704,0 -0.704,0.093 -0.704,0.328 l 0,3.89 z m 3.969,0 c 0,0.188 -0.015,0.204 -0.219,0.204 -0.437,-0.454 -1.078,-0.454 -1.375,-0.454 l 0,-0.25 c 0.172,0 0.641,0 1.016,0.188 l 0,-3.578 c 0,-0.235 0,-0.328 -0.703,-0.328 l -0.266,0 0,-0.25 c 0.125,0 1,0.031 1.25,0.031 0.219,0 1.11,-0.031 1.266,-0.031 l 0,0.25 -0.266,0 c -0.703,0 -0.703,0.093 -0.703,0.328 l 0,3.89 z" />
		<path d="m 36.551,67.551 c -0.188,0.375 -0.469,0.64 -0.922,0.64 -1.172,0 -2.406,-1.453 -2.406,-2.906 0,-0.937 0.547,-1.594 1.328,-1.594 0.203,0 0.703,0.047 1.297,0.75 0.078,-0.421 0.422,-0.75 0.906,-0.75 0.344,0 0.578,0.235 0.734,0.547 0.172,0.36 0.297,0.969 0.297,0.985 0,0.093 -0.094,0.093 -0.125,0.093 -0.094,0 -0.109,-0.031 -0.125,-0.171 -0.172,-0.641 -0.359,-1.235 -0.765,-1.235 -0.266,0 -0.297,0.266 -0.297,0.453 0,0.219 0.015,0.297 0.125,0.735 0.109,0.422 0.14,0.515 0.218,0.906 l 0.36,1.391 c 0.078,0.265 0.078,0.296 0.078,0.328 0,0.172 -0.125,0.265 -0.297,0.265 -0.234,0 -0.391,-0.218 -0.406,-0.437 z m -0.656,-2.563 c -0.047,-0.187 -0.047,-0.203 -0.204,-0.375 -0.437,-0.547 -0.843,-0.703 -1.125,-0.703 -0.484,0 -0.625,0.547 -0.625,0.938 0,0.5 0.313,1.718 0.547,2.172 0.297,0.578 0.75,0.953 1.157,0.953 0.64,0 0.781,-0.813 0.781,-0.875 0,-0.063 -0.016,-0.125 -0.031,-0.172 l -0.5,-1.938 z" />
		<path d="m 40.457,66.773 c 0,0.188 -0.016,0.204 -0.219,0.204 -0.437,-0.454 -1.078,-0.454 -1.375,-0.454 l 0,-0.25 c 0.172,0 0.641,0 1.016,0.188 l 0,-3.578 c 0,-0.235 0,-0.328 -0.703,-0.328 l -0.266,0 0,-0.25 c 0.125,0 1,0.031 1.25,0.031 0.219,0 1.11,-0.031 1.266,-0.031 l 0,0.25 -0.266,0 c -0.703,0 -0.703,0.093 -0.703,0.328 l 0,3.89 z m 5.172,-3.187 -0.25,0 C 45.363,63.43 45.285,63.008 45.207,62.945 45.145,62.898 44.598,62.898 44.504,62.898 l -1.297,0 c 0.734,0.657 0.984,0.86 1.406,1.188 0.516,0.406 1.016,0.844 1.016,1.516 0,0.843 -0.75,1.375 -1.656,1.375 -0.875,0 -1.469,-0.61 -1.469,-1.266 0,-0.359 0.312,-0.391 0.375,-0.391 0.172,0 0.375,0.125 0.375,0.375 0,0.125 -0.047,0.375 -0.406,0.375 0.218,0.5 0.687,0.657 1.015,0.657 0.703,0 1.078,-0.563 1.078,-1.125 0,-0.61 -0.437,-1.094 -0.671,-1.344 l -1.688,-1.672 c -0.078,-0.078 -0.078,-0.078 -0.078,-0.281 l 2.906,0 0.219,1.281 z" />
		<path d="m 64.898,67.551 c -0.187,0.375 -0.468,0.64 -0.921,0.64 -1.172,0 -2.407,-1.453 -2.407,-2.906 0,-0.937 0.547,-1.594 1.328,-1.594 0.204,0 0.704,0.047 1.297,0.75 0.078,-0.421 0.422,-0.75 0.907,-0.75 0.343,0 0.578,0.235 0.734,0.547 0.172,0.36 0.297,0.969 0.297,0.985 0,0.093 -0.094,0.093 -0.125,0.093 -0.094,0 -0.11,-0.031 -0.125,-0.171 -0.172,-0.641 -0.36,-1.235 -0.766,-1.235 -0.265,0 -0.297,0.266 -0.297,0.453 0,0.219 0.016,0.297 0.125,0.735 0.11,0.422 0.141,0.515 0.219,0.906 l 0.359,1.391 c 0.079,0.265 0.079,0.296 0.079,0.328 0,0.172 -0.125,0.265 -0.297,0.265 -0.235,0 -0.391,-0.218 -0.407,-0.437 z m -0.656,-2.563 c -0.047,-0.187 -0.047,-0.203 -0.203,-0.375 -0.437,-0.547 -0.844,-0.703 -1.125,-0.703 -0.484,0 -0.625,0.547 -0.625,0.938 0,0.5 0.313,1.718 0.547,2.172 0.297,0.578 0.75,0.953 1.156,0.953 0.641,0 0.781,-0.813 0.781,-0.875 0,-0.063 -0.015,-0.125 -0.031,-0.172 l -0.5,-1.938 z" />
		<path d="m 68.805,66.773 c 0,0.188 -0.016,0.204 -0.219,0.204 -0.438,-0.454 -1.078,-0.454 -1.375,-0.454 l 0,-0.25 c 0.172,0 0.641,0 1.016,0.188 l 0,-3.578 c 0,-0.235 0,-0.328 -0.704,-0.328 l -0.265,0 0,-0.25 c 0.125,0 1,0.031 1.25,0.031 0.219,0 1.109,-0.031 1.265,-0.031 l 0,0.25 -0.265,0 c -0.703,0 -0.703,0.093 -0.703,0.328 l 0,3.89 z m 3.531,-2.125 c 0.547,0 0.937,-0.375 0.937,-1.125 0,-0.875 -0.5,-1.14 -0.906,-1.14 -0.281,0 -0.906,0.078 -1.203,0.5 0.328,0.015 0.406,0.25 0.406,0.39 0,0.219 -0.156,0.391 -0.375,0.391 -0.203,0 -0.406,-0.125 -0.406,-0.406 0,-0.672 0.734,-1.094 1.594,-1.094 0.969,0 1.656,0.656 1.656,1.359 0,0.547 -0.453,1.094 -1.234,1.25 0.75,0.266 1.015,0.797 1.015,1.235 0,0.547 -0.64,0.969 -1.422,0.969 -0.781,0 -1.39,-0.391 -1.39,-0.954 0,-0.234 0.156,-0.359 0.375,-0.359 0.219,0 0.359,0.156 0.359,0.359 0,0.204 -0.14,0.344 -0.359,0.36 0.25,0.312 0.734,0.39 0.984,0.39 0.328,0 0.766,-0.156 0.766,-0.765 0,-0.297 -0.094,-0.625 -0.281,-0.844 -0.235,-0.266 -0.438,-0.281 -0.782,-0.297 -0.172,-0.015 -0.187,-0.015 -0.234,-0.031 0,0 -0.063,0 -0.063,-0.078 0,-0.11 0.063,-0.11 0.188,-0.11 l 0.375,0 z" />
		<path d="m 93.242,67.551 c -0.187,0.375 -0.469,0.64 -0.922,0.64 -1.172,0 -2.406,-1.453 -2.406,-2.906 0,-0.937 0.547,-1.594 1.328,-1.594 0.203,0 0.703,0.047 1.297,0.75 0.078,-0.421 0.422,-0.75 0.906,-0.75 0.344,0 0.578,0.235 0.735,0.547 0.172,0.36 0.297,0.969 0.297,0.985 0,0.093 -0.094,0.093 -0.125,0.093 -0.094,0 -0.11,-0.031 -0.125,-0.171 -0.172,-0.641 -0.36,-1.235 -0.766,-1.235 -0.266,0 -0.297,0.266 -0.297,0.453 0,0.219 0.016,0.297 0.125,0.735 0.109,0.422 0.141,0.515 0.219,0.906 l 0.359,1.391 c 0.078,0.265 0.078,0.296 0.078,0.328 0,0.172 -0.125,0.265 -0.297,0.265 -0.234,0 -0.39,-0.218 -0.406,-0.437 z m -0.656,-2.563 c -0.047,-0.187 -0.047,-0.203 -0.203,-0.375 -0.438,-0.547 -0.844,-0.703 -1.125,-0.703 -0.485,0 -0.625,0.547 -0.625,0.938 0,0.5 0.312,1.718 0.547,2.172 0.297,0.578 0.75,0.953 1.156,0.953 0.641,0 0.781,-0.813 0.781,-0.875 0,-0.063 -0.015,-0.125 -0.031,-0.172 l -0.5,-1.938 z" />
		<path d="m 97.148,66.773 c 0,0.188 -0.015,0.204 -0.218,0.204 -0.438,-0.454 -1.078,-0.454 -1.375,-0.454 l 0,-0.25 c 0.172,0 0.64,0 1.015,0.188 l 0,-3.578 c 0,-0.235 0,-0.328 -0.703,-0.328 l -0.265,0 0,-0.25 c 0.125,0 1,0.031 1.25,0.031 0.218,0 1.109,-0.031 1.265,-0.031 l 0,0.25 -0.265,0 c -0.704,0 -0.704,0.093 -0.704,0.328 l 0,3.89 z m 3.969,0 c 0,0.188 -0.015,0.204 -0.219,0.204 -0.437,-0.454 -1.078,-0.454 -1.375,-0.454 l 0,-0.25 c 0.172,0 0.641,0 1.016,0.188 l 0,-3.578 c 0,-0.235 0,-0.328 -0.703,-0.328 l -0.266,0 0,-0.25 c 0.125,0 1,0.031 1.25,0.031 0.219,0 1.11,-0.031 1.266,-0.031 l 0,0.25 -0.266,0 c -0.703,0 -0.703,0.093 -0.703,0.328 l 0,3.89 z" />
		<path d="m 121.59,67.551 c -0.188,0.375 -0.469,0.64 -0.922,0.64 -1.172,0 -2.406,-1.453 -2.406,-2.906 0,-0.937 0.547,-1.594 1.328,-1.594 0.203,0 0.703,0.047 1.297,0.75 0.078,-0.421 0.422,-0.75 0.906,-0.75 0.344,0 0.578,0.235 0.734,0.547 0.172,0.36 0.297,0.969 0.297,0.985 0,0.093 -0.094,0.093 -0.125,0.093 -0.094,0 -0.109,-0.031 -0.125,-0.171 -0.172,-0.641 -0.359,-1.235 -0.765,-1.235 -0.266,0 -0.297,0.266 -0.297,0.453 0,0.219 0.015,0.297 0.125,0.735 0.109,0.422 0.14,0.515 0.218,0.906 l 0.36,1.391 c 0.078,0.265 0.078,0.296 0.078,0.328 0,0.172 -0.125,0.265 -0.297,0.265 -0.234,0 -0.391,-0.218 -0.406,-0.437 z m -0.656,-2.563 c -0.047,-0.187 -0.047,-0.203 -0.204,-0.375 -0.437,-0.547 -0.843,-0.703 -1.125,-0.703 -0.484,0 -0.625,0.547 -0.625,0.938 0,0.5 0.313,1.718 0.547,2.172 0.297,0.578 0.75,0.953 1.157,0.953 0.64,0 0.781,-0.813 0.781,-0.875 0,-0.063 -0.016,-0.125 -0.031,-0.172 l -0.5,-1.938 z" />
		<path d="m 125.496,66.773 c 0,0.188 -0.016,0.204 -0.219,0.204 -0.437,-0.454 -1.078,-0.454 -1.375,-0.454 l 0,-0.25 c 0.172,0 0.641,0 1.016,0.188 l 0,-3.578 c 0,-0.235 0,-0.328 -0.703,-0.328 l -0.266,0 0,-0.25 c 0.125,0 1,0.031 1.25,0.031 0.219,0 1.11,-0.031 1.266,-0.031 l 0,0.25 -0.266,0 c -0.703,0 -0.703,0.093 -0.703,0.328 l 0,3.89 z m 5.172,-3.187 -0.25,0 c -0.016,-0.156 -0.094,-0.578 -0.172,-0.641 -0.062,-0.047 -0.609,-0.047 -0.703,-0.047 l -1.297,0 c 0.734,0.657 0.984,0.86 1.406,1.188 0.516,0.406 1.016,0.844 1.016,1.516 0,0.843 -0.75,1.375 -1.656,1.375 -0.875,0 -1.469,-0.61 -1.469,-1.266 0,-0.359 0.312,-0.391 0.375,-0.391 0.172,0 0.375,0.125 0.375,0.375 0,0.125 -0.047,0.375 -0.406,0.375 0.218,0.5 0.687,0.657 1.015,0.657 0.703,0 1.078,-0.563 1.078,-1.125 0,-0.61 -0.437,-1.094 -0.671,-1.344 l -1.688,-1.672 c -0.078,-0.078 -0.078,-0.078 -0.078,-0.281 l 2.906,0 0.219,1.281 z" />
		<path d="m 8.203,39.203 c -0.187,0.375 -0.469,0.641 -0.922,0.641 -1.172,0 -2.406,-1.453 -2.406,-2.906 0,-0.938 0.547,-1.594 1.328,-1.594 0.203,0 0.703,0.047 1.297,0.75 0.078,-0.422 0.422,-0.75 0.906,-0.75 0.344,0 0.578,0.234 0.735,0.547 0.172,0.359 0.297,0.968 0.297,0.984 0,0.094 -0.094,0.094 -0.125,0.094 -0.094,0 -0.11,-0.031 -0.125,-0.172 -0.172,-0.641 -0.36,-1.234 -0.766,-1.234 -0.266,0 -0.297,0.265 -0.297,0.453 0,0.218 0.016,0.297 0.125,0.734 0.109,0.422 0.141,0.516 0.219,0.906 l 0.359,1.391 c 0.078,0.266 0.078,0.297 0.078,0.328 0,0.172 -0.125,0.266 -0.297,0.266 -0.234,0 -0.39,-0.219 -0.406,-0.438 z M 7.547,36.641 C 7.5,36.453 7.5,36.438 7.344,36.266 6.906,35.719 6.5,35.563 6.219,35.563 c -0.485,0 -0.625,0.546 -0.625,0.937 0,0.5 0.312,1.719 0.547,2.172 0.297,0.578 0.75,0.953 1.156,0.953 0.641,0 0.781,-0.812 0.781,-0.875 0,-0.062 -0.015,-0.125 -0.031,-0.172 l -0.5,-1.937 z" />
		<path d="m 13.313,35.242 -0.25,0 c -0.016,-0.156 -0.094,-0.578 -0.172,-0.64 -0.063,-0.047 -0.61,-0.047 -0.703,-0.047 l -1.297,0 c 0.734,0.656 0.984,0.859 1.406,1.187 0.516,0.406 1.016,0.844 1.016,1.516 0,0.844 -0.75,1.375 -1.657,1.375 -0.875,0 -1.468,-0.61 -1.468,-1.266 0,-0.359 0.312,-0.39 0.375,-0.39 0.171,0 0.375,0.125 0.375,0.375 0,0.125 -0.047,0.375 -0.407,0.375 0.219,0.5 0.688,0.656 1.016,0.656 0.703,0 1.078,-0.563 1.078,-1.125 0,-0.61 -0.437,-1.094 -0.672,-1.344 l -1.687,-1.672 c -0.078,-0.078 -0.078,-0.078 -0.078,-0.281 l 2.906,0 0.219,1.281 z m 2.765,3.188 c 0,0.187 -0.015,0.203 -0.219,0.203 C 15.422,38.18 14.781,38.18 14.484,38.18 l 0,-0.25 c 0.172,0 0.641,0 1.016,0.187 l 0,-3.578 c 0,-0.234 0,-0.328 -0.703,-0.328 l -0.266,0 0,-0.25 c 0.125,0 1,0.031 1.25,0.031 0.219,0 1.11,-0.031 1.266,-0.031 l 0,0.25 -0.266,0 c -0.703,0 -0.703,0.094 -0.703,0.328 l 0,3.891 z" />
		<path d="m 36.551,39.203 c -0.188,0.375 -0.469,0.641 -0.922,0.641 -1.172,0 -2.406,-1.453 -2.406,-2.906 0,-0.938 0.547,-1.594 1.328,-1.594 0.203,0 0.703,0.047 1.297,0.75 0.078,-0.422 0.422,-0.75 0.906,-0.75 0.344,0 0.578,0.234 0.734,0.547 0.172,0.359 0.297,0.968 0.297,0.984 0,0.094 -0.094,0.094 -0.125,0.094 -0.094,0 -0.109,-0.031 -0.125,-0.172 -0.172,-0.641 -0.359,-1.234 -0.765,-1.234 -0.266,0 -0.297,0.265 -0.297,0.453 0,0.218 0.015,0.297 0.125,0.734 0.109,0.422 0.14,0.516 0.218,0.906 l 0.36,1.391 c 0.078,0.266 0.078,0.297 0.078,0.328 0,0.172 -0.125,0.266 -0.297,0.266 -0.234,0 -0.391,-0.219 -0.406,-0.438 z m -0.656,-2.562 c -0.047,-0.188 -0.047,-0.203 -0.204,-0.375 -0.437,-0.547 -0.843,-0.703 -1.125,-0.703 -0.484,0 -0.625,0.546 -0.625,0.937 0,0.5 0.313,1.719 0.547,2.172 0.297,0.578 0.75,0.953 1.157,0.953 0.64,0 0.781,-0.812 0.781,-0.875 0,-0.062 -0.016,-0.125 -0.031,-0.172 l -0.5,-1.937 z" />
		<path d="m 41.66,35.242 -0.25,0 c -0.015,-0.156 -0.094,-0.578 -0.172,-0.64 -0.062,-0.047 -0.609,-0.047 -0.703,-0.047 l -1.297,0 c 0.735,0.656 0.985,0.859 1.407,1.187 0.515,0.406 1.015,0.844 1.015,1.516 0,0.844 -0.75,1.375 -1.656,1.375 -0.875,0 -1.469,-0.61 -1.469,-1.266 0,-0.359 0.313,-0.39 0.375,-0.39 0.172,0 0.375,0.125 0.375,0.375 0,0.125 -0.047,0.375 -0.406,0.375 0.219,0.5 0.687,0.656 1.016,0.656 0.703,0 1.078,-0.563 1.078,-1.125 0,-0.61 -0.438,-1.094 -0.672,-1.344 l -1.688,-1.672 c -0.078,-0.078 -0.078,-0.078 -0.078,-0.281 l 2.906,0 0.219,1.281 z m 3.969,0 -0.25,0 c -0.016,-0.156 -0.094,-0.578 -0.172,-0.64 -0.062,-0.047 -0.609,-0.047 -0.703,-0.047 l -1.297,0 c 0.734,0.656 0.984,0.859 1.406,1.187 0.516,0.406 1.016,0.844 1.016,1.516 0,0.844 -0.75,1.375 -1.656,1.375 -0.875,0 -1.469,-0.61 -1.469,-1.266 0,-0.359 0.312,-0.39 0.375,-0.39 0.172,0 0.375,0.125 0.375,0.375 0,0.125 -0.047,0.375 -0.406,0.375 0.218,0.5 0.687,0.656 1.015,0.656 0.703,0 1.078,-0.563 1.078,-1.125 0,-0.61 -0.437,-1.094 -0.671,-1.344 l -1.688,-1.672 c -0.078,-0.078 -0.078,-0.078 -0.078,-0.281 l 2.906,0 0.219,1.281 z" />
		<path d="m 64.898,39.203 c -0.187,0.375 -0.468,0.641 -0.921,0.641 -1.172,0 -2.407,-1.453 -2.407,-2.906 0,-0.938 0.547,-1.594 1.328,-1.594 0.204,0 0.704,0.047 1.297,0.75 0.078,-0.422 0.422,-0.75 0.907,-0.75 0.343,0 0.578,0.234 0.734,0.547 0.172,0.359 0.297,0.968 0.297,0.984 0,0.094 -0.094,0.094 -0.125,0.094 -0.094,0 -0.11,-0.031 -0.125,-0.172 -0.172,-0.641 -0.36,-1.234 -0.766,-1.234 -0.265,0 -0.297,0.265 -0.297,0.453 0,0.218 0.016,0.297 0.125,0.734 0.11,0.422 0.141,0.516 0.219,0.906 l 0.359,1.391 c 0.079,0.266 0.079,0.297 0.079,0.328 0,0.172 -0.125,0.266 -0.297,0.266 -0.235,0 -0.391,-0.219 -0.407,-0.438 z m -0.656,-2.562 c -0.047,-0.188 -0.047,-0.203 -0.203,-0.375 -0.437,-0.547 -0.844,-0.703 -1.125,-0.703 -0.484,0 -0.625,0.546 -0.625,0.937 0,0.5 0.313,1.719 0.547,2.172 0.297,0.578 0.75,0.953 1.156,0.953 0.641,0 0.781,-0.812 0.781,-0.875 0,-0.062 -0.015,-0.125 -0.031,-0.172 l -0.5,-1.937 z" />
		<path d="m 70.008,35.242 -0.25,0 c -0.016,-0.156 -0.094,-0.578 -0.172,-0.64 -0.063,-0.047 -0.609,-0.047 -0.703,-0.047 l -1.297,0 c 0.734,0.656 0.984,0.859 1.406,1.187 0.516,0.406 1.016,0.844 1.016,1.516 0,0.844 -0.75,1.375 -1.656,1.375 -0.875,0 -1.469,-0.61 -1.469,-1.266 0,-0.359 0.312,-0.39 0.375,-0.39 0.172,0 0.375,0.125 0.375,0.375 0,0.125 -0.047,0.375 -0.406,0.375 0.218,0.5 0.687,0.656 1.015,0.656 0.703,0 1.078,-0.563 1.078,-1.125 0,-0.61 -0.437,-1.094 -0.672,-1.344 l -1.687,-1.672 c -0.078,-0.078 -0.078,-0.078 -0.078,-0.281 l 2.906,0 0.219,1.281 z m 2.328,1.063 c 0.547,0 0.937,-0.375 0.937,-1.125 0,-0.875 -0.5,-1.141 -0.906,-1.141 -0.281,0 -0.906,0.078 -1.203,0.5 0.328,0.016 0.406,0.25 0.406,0.391 0,0.218 -0.156,0.39 -0.375,0.39 -0.203,0 -0.406,-0.125 -0.406,-0.406 0,-0.672 0.734,-1.094 1.594,-1.094 0.969,0 1.656,0.657 1.656,1.36 0,0.547 -0.453,1.093 -1.234,1.25 0.75,0.265 1.015,0.797 1.015,1.234 0,0.547 -0.64,0.969 -1.422,0.969 -0.781,0 -1.39,-0.391 -1.39,-0.953 0,-0.235 0.156,-0.36 0.375,-0.36 0.219,0 0.359,0.157 0.359,0.36 0,0.203 -0.14,0.343 -0.359,0.359 0.25,0.313 0.734,0.391 0.984,0.391 0.328,0 0.766,-0.157 0.766,-0.766 0,-0.297 -0.094,-0.625 -0.281,-0.844 -0.235,-0.265 -0.438,-0.281 -0.782,-0.297 -0.172,-0.015 -0.187,-0.015 -0.234,-0.031 0,0 -0.063,0 -0.063,-0.078 0,-0.109 0.063,-0.109 0.188,-0.109 l 0.375,0 z" />
		<path d="m 93.242,39.203 c -0.187,0.375 -0.469,0.641 -0.922,0.641 -1.172,0 -2.406,-1.453 -2.406,-2.906 0,-0.938 0.547,-1.594 1.328,-1.594 0.203,0 0.703,0.047 1.297,0.75 0.078,-0.422 0.422,-0.75 0.906,-0.75 0.344,0 0.578,0.234 0.735,0.547 0.172,0.359 0.297,0.968 0.297,0.984 0,0.094 -0.094,0.094 -0.125,0.094 -0.094,0 -0.11,-0.031 -0.125,-0.172 -0.172,-0.641 -0.36,-1.234 -0.766,-1.234 -0.266,0 -0.297,0.265 -0.297,0.453 0,0.218 0.016,0.297 0.125,0.734 0.109,0.422 0.141,0.516 0.219,0.906 l 0.359,1.391 c 0.078,0.266 0.078,0.297 0.078,0.328 0,0.172 -0.125,0.266 -0.297,0.266 -0.234,0 -0.39,-0.219 -0.406,-0.438 z m -0.656,-2.562 c -0.047,-0.188 -0.047,-0.203 -0.203,-0.375 -0.438,-0.547 -0.844,-0.703 -1.125,-0.703 -0.485,0 -0.625,0.546 -0.625,0.937 0,0.5 0.312,1.719 0.547,2.172 0.297,0.578 0.75,0.953 1.156,0.953 0.641,0 0.781,-0.812 0.781,-0.875 0,-0.062 -0.015,-0.125 -0.031,-0.172 l -0.5,-1.937 z" />
		<path d="m 98.352,35.242 -0.25,0 c -0.016,-0.156 -0.094,-0.578 -0.172,-0.64 -0.063,-0.047 -0.61,-0.047 -0.703,-0.047 l -1.297,0 c 0.734,0.656 0.984,0.859 1.406,1.187 0.516,0.406 1.016,0.844 1.016,1.516 0,0.844 -0.75,1.375 -1.657,1.375 -0.875,0 -1.468,-0.61 -1.468,-1.266 0,-0.359 0.312,-0.39 0.375,-0.39 0.171,0 0.375,0.125 0.375,0.375 0,0.125 -0.047,0.375 -0.407,0.375 0.219,0.5 0.688,0.656 1.016,0.656 0.703,0 1.078,-0.563 1.078,-1.125 0,-0.61 -0.437,-1.094 -0.672,-1.344 l -1.687,-1.672 c -0.078,-0.078 -0.078,-0.078 -0.078,-0.281 l 2.906,0 0.219,1.281 z m 2.765,3.188 c 0,0.187 -0.015,0.203 -0.219,0.203 C 100.461,38.18 99.82,38.18 99.523,38.18 l 0,-0.25 c 0.172,0 0.641,0 1.016,0.187 l 0,-3.578 c 0,-0.234 0,-0.328 -0.703,-0.328 l -0.266,0 0,-0.25 c 0.125,0 1,0.031 1.25,0.031 0.219,0 1.11,-0.031 1.266,-0.031 l 0,0.25 -0.266,0 c -0.703,0 -0.703,0.094 -0.703,0.328 l 0,3.891 z" />
		<path d="m 121.59,39.203 c -0.188,0.375 -0.469,0.641 -0.922,0.641 -1.172,0 -2.406,-1.453 -2.406,-2.906 0,-0.938 0.547,-1.594 1.328,-1.594 0.203,0 0.703,0.047 1.297,0.75 0.078,-0.422 0.422,-0.75 0.906,-0.75 0.344,0 0.578,0.234 0.734,0.547 0.172,0.359 0.297,0.968 0.297,0.984 0,0.094 -0.094,0.094 -0.125,0.094 -0.094,0 -0.109,-0.031 -0.125,-0.172 -0.172,-0.641 -0.359,-1.234 -0.765,-1.234 -0.266,0 -0.297,0.265 -0.297,0.453 0,0.218 0.015,0.297 0.125,0.734 0.109,0.422 0.14,0.516 0.218,0.906 l 0.36,1.391 c 0.078,0.266 0.078,0.297 0.078,0.328 0,0.172 -0.125,0.266 -0.297,0.266 -0.234,0 -0.391,-0.219 -0.406,-0.438 z m -0.656,-2.562 c -0.047,-0.188 -0.047,-0.203 -0.204,-0.375 -0.437,-0.547 -0.843,-0.703 -1.125,-0.703 -0.484,0 -0.625,0.546 -0.625,0.937 0,0.5 0.313,1.719 0.547,2.172 0.297,0.578 0.75,0.953 1.157,0.953 0.64,0 0.781,-0.812 0.781,-0.875 0,-0.062 -0.016,-0.125 -0.031,-0.172 l -0.5,-1.937 z" />
		<path d="m 126.699,35.242 -0.25,0 c -0.015,-0.156 -0.094,-0.578 -0.172,-0.64 -0.062,-0.047 -0.609,-0.047 -0.703,-0.047 l -1.297,0 c 0.735,0.656 0.985,0.859 1.407,1.187 0.515,0.406 1.015,0.844 1.015,1.516 0,0.844 -0.75,1.375 -1.656,1.375 -0.875,0 -1.469,-0.61 -1.469,-1.266 0,-0.359 0.313,-0.39 0.375,-0.39 0.172,0 0.375,0.125 0.375,0.375 0,0.125 -0.047,0.375 -0.406,0.375 0.219,0.5 0.687,0.656 1.016,0.656 0.703,0 1.078,-0.563 1.078,-1.125 0,-0.61 -0.438,-1.094 -0.672,-1.344 l -1.688,-1.672 c -0.078,-0.078 -0.078,-0.078 -0.078,-0.281 l 2.906,0 0.219,1.281 z m 3.969,0 -0.25,0 c -0.016,-0.156 -0.094,-0.578 -0.172,-0.64 -0.062,-0.047 -0.609,-0.047 -0.703,-0.047 l -1.297,0 c 0.734,0.656 0.984,0.859 1.406,1.187 0.516,0.406 1.016,0.844 1.016,1.516 0,0.844 -0.75,1.375 -1.656,1.375 -0.875,0 -1.469,-0.61 -1.469,-1.266 0,-0.359 0.312,-0.39 0.375,-0.39 0.172,0 0.375,0.125 0.375,0.375 0,0.125 -0.047,0.375 -0.406,0.375 0.218,0.5 0.687,0.656 1.015,0.656 0.703,0 1.078,-0.563 1.078,-1.125 0,-0.61 -0.437,-1.094 -0.671,-1.344 l -1.688,-1.672 c -0.078,-0.078 -0.078,-0.078 -0.078,-0.281 l 2.906,0 0.219,1.281 z" />
		<path d="m 8.203,10.856 c -0.187,0.375 -0.469,0.64 -0.922,0.64 -1.172,0 -2.406,-1.453 -2.406,-2.906 0,-0.938 0.547,-1.594 1.328,-1.594 0.203,0 0.703,0.047 1.297,0.75 0.078,-0.422 0.422,-0.75 0.906,-0.75 0.344,0 0.578,0.234 0.735,0.547 0.172,0.359 0.297,0.969 0.297,0.984 0,0.094 -0.094,0.094 -0.125,0.094 C 9.219,8.621 9.203,8.59 9.188,8.449 9.016,7.809 8.828,7.215 8.422,7.215 c -0.266,0 -0.297,0.265 -0.297,0.453 0,0.219 0.016,0.297 0.125,0.734 0.109,0.422 0.141,0.516 0.219,0.907 l 0.359,1.39 c 0.078,0.266 0.078,0.297 0.078,0.328 0,0.172 -0.125,0.266 -0.297,0.266 -0.234,0 -0.39,-0.219 -0.406,-0.437 z M 7.547,8.293 C 7.5,8.105 7.5,8.09 7.344,7.918 6.906,7.371 6.5,7.215 6.219,7.215 c -0.485,0 -0.625,0.547 -0.625,0.937 0,0.5 0.312,1.719 0.547,2.172 0.297,0.578 0.75,0.953 1.156,0.953 0.641,0 0.781,-0.812 0.781,-0.875 0,-0.062 -0.015,-0.125 -0.031,-0.171 l -0.5,-1.938 z" />
		<path d="m 11.672,7.957 c 0.547,0 0.937,-0.375 0.937,-1.125 0,-0.875 -0.5,-1.141 -0.906,-1.141 -0.281,0 -0.906,0.079 -1.203,0.5 0.328,0.016 0.406,0.25 0.406,0.391 0,0.219 -0.156,0.391 -0.375,0.391 -0.203,0 -0.406,-0.125 -0.406,-0.407 0,-0.671 0.734,-1.093 1.594,-1.093 0.969,0 1.656,0.656 1.656,1.359 0,0.547 -0.453,1.094 -1.234,1.25 0.75,0.266 1.015,0.797 1.015,1.234 0,0.547 -0.64,0.969 -1.422,0.969 -0.781,0 -1.39,-0.39 -1.39,-0.953 0,-0.234 0.156,-0.359 0.375,-0.359 0.219,0 0.359,0.156 0.359,0.359 0,0.203 -0.14,0.344 -0.359,0.359 0.25,0.313 0.734,0.391 0.984,0.391 0.328,0 0.766,-0.156 0.766,-0.766 0,-0.296 -0.094,-0.625 -0.281,-0.843 C 11.953,8.207 11.75,8.191 11.406,8.176 11.234,8.16 11.219,8.16 11.172,8.145 c 0,0 -0.063,0 -0.063,-0.079 0,-0.109 0.063,-0.109 0.188,-0.109 l 0.375,0 z m 4.406,2.125 c 0,0.188 -0.015,0.203 -0.219,0.203 C 15.422,9.832 14.781,9.832 14.484,9.832 l 0,-0.25 c 0.172,0 0.641,0 1.016,0.188 l 0,-3.579 c 0,-0.234 0,-0.328 -0.703,-0.328 l -0.266,0 0,-0.25 c 0.125,0 1,0.032 1.25,0.032 0.219,0 1.11,-0.032 1.266,-0.032 l 0,0.25 -0.266,0 c -0.703,0 -0.703,0.094 -0.703,0.328 l 0,3.891 z" />
		<path d="m 36.551,10.856 c -0.188,0.375 -0.469,0.64 -0.922,0.64 -1.172,0 -2.406,-1.453 -2.406,-2.906 0,-0.938 0.547,-1.594 1.328,-1.594 0.203,0 0.703,0.047 1.297,0.75 0.078,-0.422 0.422,-0.75 0.906,-0.75 0.344,0 0.578,0.234 0.734,0.547 0.172,0.359 0.297,0.969 0.297,0.984 0,0.094 -0.094,0.094 -0.125,0.094 -0.094,0 -0.109,-0.031 -0.125,-0.172 -0.172,-0.64 -0.359,-1.234 -0.765,-1.234 -0.266,0 -0.297,0.265 -0.297,0.453 0,0.219 0.015,0.297 0.125,0.734 0.109,0.422 0.14,0.516 0.218,0.907 l 0.36,1.39 c 0.078,0.266 0.078,0.297 0.078,0.328 0,0.172 -0.125,0.266 -0.297,0.266 -0.234,0 -0.391,-0.219 -0.406,-0.437 z M 35.895,8.293 C 35.848,8.105 35.848,8.09 35.691,7.918 35.254,7.371 34.848,7.215 34.566,7.215 c -0.484,0 -0.625,0.547 -0.625,0.937 0,0.5 0.313,1.719 0.547,2.172 0.297,0.578 0.75,0.953 1.157,0.953 0.64,0 0.781,-0.812 0.781,-0.875 0,-0.062 -0.016,-0.125 -0.031,-0.171 l -0.5,-1.938 z" />
		<path d="m 40.02,7.957 c 0.546,0 0.937,-0.375 0.937,-1.125 0,-0.875 -0.5,-1.141 -0.906,-1.141 -0.281,0 -0.906,0.079 -1.203,0.5 0.328,0.016 0.406,0.25 0.406,0.391 0,0.219 -0.156,0.391 -0.375,0.391 -0.203,0 -0.406,-0.125 -0.406,-0.407 0,-0.671 0.734,-1.093 1.593,-1.093 0.969,0 1.657,0.656 1.657,1.359 0,0.547 -0.453,1.094 -1.235,1.25 0.75,0.266 1.016,0.797 1.016,1.234 0,0.547 -0.641,0.969 -1.422,0.969 -0.781,0 -1.391,-0.39 -1.391,-0.953 0,-0.234 0.157,-0.359 0.375,-0.359 0.219,0 0.36,0.156 0.36,0.359 0,0.203 -0.141,0.344 -0.36,0.359 0.25,0.313 0.735,0.391 0.985,0.391 0.328,0 0.765,-0.156 0.765,-0.766 0,-0.296 -0.093,-0.625 -0.281,-0.843 C 40.301,8.207 40.098,8.191 39.754,8.176 39.582,8.16 39.566,8.16 39.52,8.145 c 0,0 -0.063,0 -0.063,-0.079 0,-0.109 0.063,-0.109 0.188,-0.109 l 0.375,0 z m 5.609,-1.062 -0.25,0 C 45.363,6.738 45.285,6.316 45.207,6.254 45.145,6.207 44.598,6.207 44.504,6.207 l -1.297,0 c 0.734,0.656 0.984,0.859 1.406,1.188 0.516,0.406 1.016,0.843 1.016,1.515 0,0.844 -0.75,1.375 -1.656,1.375 -0.875,0 -1.469,-0.609 -1.469,-1.265 0,-0.36 0.312,-0.391 0.375,-0.391 0.172,0 0.375,0.125 0.375,0.375 0,0.125 -0.047,0.375 -0.406,0.375 0.218,0.5 0.687,0.656 1.015,0.656 0.703,0 1.078,-0.562 1.078,-1.125 0,-0.609 -0.437,-1.094 -0.671,-1.344 L 42.582,5.895 C 42.504,5.816 42.504,5.816 42.504,5.613 l 2.906,0 0.219,1.282 z" />
		<path d="m 64.898,10.856 c -0.187,0.375 -0.468,0.64 -0.921,0.64 -1.172,0 -2.407,-1.453 -2.407,-2.906 0,-0.938 0.547,-1.594 1.328,-1.594 0.204,0 0.704,0.047 1.297,0.75 0.078,-0.422 0.422,-0.75 0.907,-0.75 0.343,0 0.578,0.234 0.734,0.547 0.172,0.359 0.297,0.969 0.297,0.984 0,0.094 -0.094,0.094 -0.125,0.094 -0.094,0 -0.11,-0.031 -0.125,-0.172 -0.172,-0.64 -0.36,-1.234 -0.766,-1.234 -0.265,0 -0.297,0.265 -0.297,0.453 0,0.219 0.016,0.297 0.125,0.734 0.11,0.422 0.141,0.516 0.219,0.907 l 0.359,1.39 c 0.079,0.266 0.079,0.297 0.079,0.328 0,0.172 -0.125,0.266 -0.297,0.266 -0.235,0 -0.391,-0.219 -0.407,-0.437 z M 64.242,8.293 C 64.195,8.105 64.195,8.09 64.039,7.918 63.602,7.371 63.195,7.215 62.914,7.215 c -0.484,0 -0.625,0.547 -0.625,0.937 0,0.5 0.313,1.719 0.547,2.172 0.297,0.578 0.75,0.953 1.156,0.953 0.641,0 0.781,-0.812 0.781,-0.875 0,-0.062 -0.015,-0.125 -0.031,-0.171 l -0.5,-1.938 z" />
		<path d="m 68.367,7.957 c 0.547,0 0.938,-0.375 0.938,-1.125 0,-0.875 -0.5,-1.141 -0.907,-1.141 -0.281,0 -0.906,0.079 -1.203,0.5 0.328,0.016 0.407,0.25 0.407,0.391 0,0.219 -0.157,0.391 -0.375,0.391 -0.204,0 -0.407,-0.125 -0.407,-0.407 0,-0.671 0.735,-1.093 1.594,-1.093 0.969,0 1.656,0.656 1.656,1.359 0,0.547 -0.453,1.094 -1.234,1.25 0.75,0.266 1.016,0.797 1.016,1.234 0,0.547 -0.641,0.969 -1.422,0.969 -0.782,0 -1.391,-0.39 -1.391,-0.953 0,-0.234 0.156,-0.359 0.375,-0.359 0.219,0 0.359,0.156 0.359,0.359 0,0.203 -0.14,0.344 -0.359,0.359 0.25,0.313 0.734,0.391 0.984,0.391 0.329,0 0.766,-0.156 0.766,-0.766 C 69.164,9.02 69.07,8.691 68.883,8.473 68.648,8.207 68.445,8.191 68.102,8.176 67.93,8.16 67.914,8.16 67.867,8.145 c 0,0 -0.062,0 -0.062,-0.079 0,-0.109 0.062,-0.109 0.187,-0.109 l 0.375,0 z m 3.969,0 c 0.547,0 0.937,-0.375 0.937,-1.125 0,-0.875 -0.5,-1.141 -0.906,-1.141 -0.281,0 -0.906,0.079 -1.203,0.5 0.328,0.016 0.406,0.25 0.406,0.391 0,0.219 -0.156,0.391 -0.375,0.391 -0.203,0 -0.406,-0.125 -0.406,-0.407 0,-0.671 0.734,-1.093 1.594,-1.093 0.969,0 1.656,0.656 1.656,1.359 0,0.547 -0.453,1.094 -1.234,1.25 0.75,0.266 1.015,0.797 1.015,1.234 0,0.547 -0.64,0.969 -1.422,0.969 -0.781,0 -1.39,-0.39 -1.39,-0.953 0,-0.234 0.156,-0.359 0.375,-0.359 0.219,0 0.359,0.156 0.359,0.359 0,0.203 -0.14,0.344 -0.359,0.359 0.25,0.313 0.734,0.391 0.984,0.391 0.328,0 0.766,-0.156 0.766,-0.766 0,-0.296 -0.094,-0.625 -0.281,-0.843 C 72.617,8.207 72.414,8.191 72.07,8.176 71.898,8.16 71.883,8.16 71.836,8.145 c 0,0 -0.063,0 -0.063,-0.079 0,-0.109 0.063,-0.109 0.188,-0.109 l 0.375,0 z" />
		<path d="m 93.242,10.856 c -0.187,0.375 -0.469,0.64 -0.922,0.64 -1.172,0 -2.406,-1.453 -2.406,-2.906 0,-0.938 0.547,-1.594 1.328,-1.594 0.203,0 0.703,0.047 1.297,0.75 0.078,-0.422 0.422,-0.75 0.906,-0.75 0.344,0 0.578,0.234 0.735,0.547 0.172,0.359 0.297,0.969 0.297,0.984 0,0.094 -0.094,0.094 -0.125,0.094 -0.094,0 -0.11,-0.031 -0.125,-0.172 -0.172,-0.64 -0.36,-1.234 -0.766,-1.234 -0.266,0 -0.297,0.265 -0.297,0.453 0,0.219 0.016,0.297 0.125,0.734 0.109,0.422 0.141,0.516 0.219,0.907 l 0.359,1.39 c 0.078,0.266 0.078,0.297 0.078,0.328 0,0.172 -0.125,0.266 -0.297,0.266 -0.234,0 -0.39,-0.219 -0.406,-0.437 z M 92.586,8.293 C 92.539,8.105 92.539,8.09 92.383,7.918 91.945,7.371 91.539,7.215 91.258,7.215 c -0.485,0 -0.625,0.547 -0.625,0.937 0,0.5 0.312,1.719 0.547,2.172 0.297,0.578 0.75,0.953 1.156,0.953 0.641,0 0.781,-0.812 0.781,-0.875 0,-0.062 -0.015,-0.125 -0.031,-0.171 l -0.5,-1.938 z" />
		<path d="m 96.711,7.957 c 0.547,0 0.937,-0.375 0.937,-1.125 0,-0.875 -0.5,-1.141 -0.906,-1.141 -0.281,0 -0.906,0.079 -1.203,0.5 0.328,0.016 0.406,0.25 0.406,0.391 0,0.219 -0.156,0.391 -0.375,0.391 -0.203,0 -0.406,-0.125 -0.406,-0.407 0,-0.671 0.734,-1.093 1.594,-1.093 0.969,0 1.656,0.656 1.656,1.359 0,0.547 -0.453,1.094 -1.234,1.25 0.75,0.266 1.015,0.797 1.015,1.234 0,0.547 -0.64,0.969 -1.422,0.969 -0.781,0 -1.39,-0.39 -1.39,-0.953 0,-0.234 0.156,-0.359 0.375,-0.359 0.219,0 0.359,0.156 0.359,0.359 0,0.203 -0.14,0.344 -0.359,0.359 0.25,0.313 0.734,0.391 0.984,0.391 0.328,0 0.766,-0.156 0.766,-0.766 0,-0.296 -0.094,-0.625 -0.281,-0.843 C 96.992,8.207 96.789,8.191 96.445,8.176 96.273,8.16 96.258,8.16 96.211,8.145 c 0,0 -0.063,0 -0.063,-0.079 0,-0.109 0.063,-0.109 0.188,-0.109 l 0.375,0 z m 4.406,2.125 c 0,0.188 -0.015,0.203 -0.219,0.203 C 100.461,9.832 99.82,9.832 99.523,9.832 l 0,-0.25 c 0.172,0 0.641,0 1.016,0.188 l 0,-3.579 c 0,-0.234 0,-0.328 -0.703,-0.328 l -0.266,0 0,-0.25 c 0.125,0 1,0.032 1.25,0.032 0.219,0 1.11,-0.032 1.266,-0.032 l 0,0.25 -0.266,0 c -0.703,0 -0.703,0.094 -0.703,0.328 l 0,3.891 z" />
		<path d="m 121.59,10.856 c -0.188,0.375 -0.469,0.64 -0.922,0.64 -1.172,0 -2.406,-1.453 -2.406,-2.906 0,-0.938 0.547,-1.594 1.328,-1.594 0.203,0 0.703,0.047 1.297,0.75 0.078,-0.422 0.422,-0.75 0.906,-0.75 0.344,0 0.578,0.234 0.734,0.547 0.172,0.359 0.297,0.969 0.297,0.984 0,0.094 -0.094,0.094 -0.125,0.094 -0.094,0 -0.109,-0.031 -0.125,-0.172 -0.172,-0.64 -0.359,-1.234 -0.765,-1.234 -0.266,0 -0.297,0.265 -0.297,0.453 0,0.219 0.015,0.297 0.125,0.734 0.109,0.422 0.14,0.516 0.218,0.907 l 0.36,1.39 c 0.078,0.266 0.078,0.297 0.078,0.328 0,0.172 -0.125,0.266 -0.297,0.266 -0.234,0 -0.391,-0.219 -0.406,-0.437 z m -0.656,-2.563 c -0.047,-0.188 -0.047,-0.203 -0.204,-0.375 -0.437,-0.547 -0.843,-0.703 -1.125,-0.703 -0.484,0 -0.625,0.547 -0.625,0.937 0,0.5 0.313,1.719 0.547,2.172 0.297,0.578 0.75,0.953 1.157,0.953 0.64,0 0.781,-0.812 0.781,-0.875 0,-0.062 -0.016,-0.125 -0.031,-0.171 l -0.5,-1.938 z" />
		<path d="m 125.059,7.957 c 0.546,0 0.937,-0.375 0.937,-1.125 0,-0.875 -0.5,-1.141 -0.906,-1.141 -0.281,0 -0.906,0.079 -1.203,0.5 0.328,0.016 0.406,0.25 0.406,0.391 0,0.219 -0.156,0.391 -0.375,0.391 -0.203,0 -0.406,-0.125 -0.406,-0.407 0,-0.671 0.734,-1.093 1.593,-1.093 0.969,0 1.657,0.656 1.657,1.359 0,0.547 -0.453,1.094 -1.235,1.25 0.75,0.266 1.016,0.797 1.016,1.234 0,0.547 -0.641,0.969 -1.422,0.969 -0.781,0 -1.391,-0.39 -1.391,-0.953 0,-0.234 0.157,-0.359 0.375,-0.359 0.219,0 0.36,0.156 0.36,0.359 0,0.203 -0.141,0.344 -0.36,0.359 0.25,0.313 0.735,0.391 0.985,0.391 0.328,0 0.765,-0.156 0.765,-0.766 0,-0.296 -0.093,-0.625 -0.281,-0.843 -0.234,-0.266 -0.437,-0.282 -0.781,-0.297 -0.172,-0.016 -0.188,-0.016 -0.234,-0.031 0,0 -0.063,0 -0.063,-0.079 0,-0.109 0.063,-0.109 0.188,-0.109 l 0.375,0 z m 5.609,-1.062 -0.25,0 c -0.016,-0.157 -0.094,-0.579 -0.172,-0.641 -0.062,-0.047 -0.609,-0.047 -0.703,-0.047 l -1.297,0 c 0.734,0.656 0.984,0.859 1.406,1.188 0.516,0.406 1.016,0.843 1.016,1.515 0,0.844 -0.75,1.375 -1.656,1.375 -0.875,0 -1.469,-0.609 -1.469,-1.265 0,-0.36 0.312,-0.391 0.375,-0.391 0.172,0 0.375,0.125 0.375,0.375 0,0.125 -0.047,0.375 -0.406,0.375 0.218,0.5 0.687,0.656 1.015,0.656 0.703,0 1.078,-0.562 1.078,-1.125 0,-0.609 -0.437,-1.094 -0.671,-1.344 l -1.688,-1.671 c -0.078,-0.079 -0.078,-0.079 -0.078,-0.282 l 2.906,0 0.219,1.282 z" />
		<path d="M 17.848,58.688 33.176,43.363 M 46.195,30.34 61.52,15.016 M 46.195,58.688 61.52,43.363 M 74.543,30.34 89.867,15.016 M 74.543,58.688 89.867,43.363 M 102.891,30.34 118.215,15.016"
			style="stroke:#000000;stroke-width:0.59776002;stroke-linecap:butt;stroke-linejoin:miter;stroke-miterlimit:10;stroke-opacity:1;stroke-dasharray:none" />
		<path d="M 61.52,58.688 46.195,43.363 M 33.172,30.34 17.848,15.016 M 89.867,58.688 74.543,43.363 M 61.52,30.34 46.195,15.016 m 72.02,43.672 -15.324,-15.325 M 89.867,30.34 74.543,15.016"
			style="fill:none;stroke:#000000;stroke-width:0.59776002;stroke-linecap:butt;stroke-linejoin:miter;stroke-miterlimit:10;stroke-opacity:1;stroke-dasharray:2.98883, 1.99255;stroke-dashoffset:0" />
		<path d="m 82.203,0 0,73.703"
        	style="fill:none;stroke:#000000;stroke-width:0.79701;stroke-linecap:butt;stroke-linejoin:miter;stroke-miterlimit:10;stroke-opacity:1;stroke-dasharray:0.79701, 1.99255;stroke-dashoffset:0" />
	</g>
</svg>
