<?xml version="1.0" encoding="UTF-8" standalone="no"?>
<!-- Created with Inkscape (http://www.inkscape.org/) -->
<svg
   xmlns:svg="http://www.w3.org/2000/svg"
   xmlns="http://www.w3.org/2000/svg"
   version="1.0"
   width="658.01306"
   height="420.36343"
   id="svg6754">
  <defs
     id="defs6756" />
  <g
     transform="translate(-40.770406,-325.69243)"
     id="layer1">
    <path
       d="M 474.42873 264.69531 A 207.18172 207.18172 0 1 1  60.065292,264.69531 A 207.18172 207.18172 0 1 1  474.42873 264.69531 z"
       transform="translate(-16.294886,271.17883)"
       style="opacity:1;fill:#f72f2f;fill-opacity:1;fill-rule:evenodd;stroke:#000000;stroke-width:6;stroke-linecap:square;stroke-linejoin:round;stroke-miterlimit:4;stroke-dasharray:none;stroke-dashoffset:0;stroke-opacity:1"
       id="path6835" />
    <path
       d="M 474.42873 264.69531 A 207.18172 207.18172 0 1 1  60.065292,264.69531 A 207.18172 207.18172 0 1 1  474.42873 264.69531 z"
       transform="translate(221.35473,271.17883)"
       style="opacity:1;fill:#628ced;fill-opacity:1;fill-rule:evenodd;stroke:#000000;stroke-width:6;stroke-linecap:square;stroke-linejoin:round;stroke-miterlimit:4;stroke-dasharray:none;stroke-dashoffset:0;stroke-opacity:1"
       id="path6837" />
    <path
       d="M 394.78125,106.3125 C 341.36398,143.79754 306.40626,205.83382 306.40625,276 C 306.40625,346.16789 341.36178,408.23399 394.78125,445.71875 C 448.19755,408.23358 483.12499,346.16542 483.125,276 C 483.125,205.83625 448.19539,143.79795 394.78125,106.3125 z "
       transform="translate(-25,259.86218)"
       style="opacity:1;fill:#ac5e8e;fill-opacity:1;fill-rule:evenodd;stroke:#000000;stroke-width:6;stroke-linecap:square;stroke-linejoin:round;stroke-miterlimit:4;stroke-dasharray:none;stroke-dashoffset:0;stroke-opacity:1"
       id="path6839" />
    <text
       x="160.46027"
       y="550.90619"
       style="font-size:42.72821808px;font-style:italic;font-weight:bold;text-align:center;text-anchor:middle;fill:#000000;fill-opacity:1;stroke:none;stroke-width:1px;stroke-linecap:butt;stroke-linejoin:miter;stroke-opacity:1;font-family:Arial"
       id="text6852"
       xml:space="preserve"><tspan
         x="160.46027"
         y="550.90619"
         id="tspan6854">Math</tspan></text>
    <text
       x="573.17798"
       y="551.16699"
       style="font-size:42.72821808px;font-style:italic;font-weight:bold;text-align:center;text-anchor:middle;fill:#000000;fill-opacity:1;stroke:none;stroke-width:1px;stroke-linecap:butt;stroke-linejoin:miter;stroke-opacity:1;font-family:Arial"
       id="text6856"
       xml:space="preserve"><tspan
         x="573.17798"
         y="551.16699"
         id="tspan6858">Equations</tspan></text>
    <text
       x="369.2124"
       y="543.31042"
       style="font-size:29.42899704px;font-style:italic;font-weight:bold;text-align:center;text-anchor:middle;fill:#000000;fill-opacity:1;stroke:none;stroke-width:1px;stroke-linecap:butt;stroke-linejoin:miter;stroke-opacity:1;font-family:Arial"
       id="text6860"
       xml:space="preserve"><tspan
         x="369.2124"
         y="543.31042"
         id="tspan6862"></tspan></text>
  </g>
</svg>
